<svg width="24" height="24" viewBox="0 0 24 24" fill="none" xmlns="http://www.w3.org/2000/svg">
<path d="M16.7499 4.74994L18.2499 4.74991C18.8022 4.7499 19.2499 5.19762 19.2499 5.74991V8.24989M16.7499 4.74994L7.74992 4.74998C6.09307 4.74999 4.74994 6.09312 4.74993 7.74996L4.74988 16.25C4.74987 17.9068 6.09302 19.25 7.74988 19.25H16.7499M16.7499 4.74994V8.24989M16.7499 19.25H18.2499C18.8022 19.25 19.2499 18.8023 19.2499 18.25V15.7499M16.7499 19.25V15.7499M16.7499 8.24989H19.2499M16.7499 8.24989V11.9999M19.2499 8.24989V11.9999M16.7499 15.7499H19.2499M16.7499 15.7499V11.9999M19.2499 15.7499V11.9999M16.7499 11.9999H19.2499M8.74995 15.25C8.74995 15.25 9.42495 13.75 10.9999 13.75C12.5749 13.75 13.2499 15.25 13.2499 15.25M12.2499 9.99999C12.2499 10.6904 11.6903 11.25 10.9999 11.25C10.3096 11.25 9.74995 10.6904 9.74995 9.99999C9.74995 9.30964 10.3096 8.74999 10.9999 8.74999C11.6903 8.74999 12.2499 9.30964 12.2499 9.99999Z" stroke="currentColor" stroke-width="1.5" stroke-linecap="round" stroke-linejoin="round"/>
</svg>
