<svg width="24" height="24" viewBox="0 0 24 24" fill="none" xmlns="http://www.w3.org/2000/svg">
<path d="M12.25 18.25H6.75C5.64543 18.25 4.75 17.3546 4.75 16.25V7.75C4.75 6.64543 5.64543 5.75 6.75 5.75H17.25C18.3546 5.75 19.25 6.64543 19.25 7.75V10.25" stroke="currentColor" stroke-width="1.5" stroke-linecap="round" stroke-linejoin="round"/>
<path d="M5.5 6.5L12 12.25L18.5 6.5" stroke="currentColor" stroke-width="1.5" stroke-linecap="round" stroke-linejoin="round"/>
<path d="M18 13.75V16.25" stroke="currentColor" stroke-width="1.5" stroke-linecap="round" stroke-linejoin="round"/>
<path d="M18.75 18.75C18.75 19.1642 18.4142 19.5 18 19.5C17.5858 19.5 17.25 19.1642 17.25 18.75C17.25 18.3358 17.5858 18 18 18C18.4142 18 18.75 18.3358 18.75 18.75Z" fill="currentColor"/>
</svg>
