<svg width="24" height="24" viewBox="0 0 24 24" fill="none" xmlns="http://www.w3.org/2000/svg">
<mask id="mask0_411_3165" style="mask-type:luminance" maskUnits="userSpaceOnUse" x="4" y="4" width="16" height="16">
<path d="M19.6432 10.5454H12.1887V13.6363H16.4796C16.0796 15.6 14.4069 16.7272 12.1887 16.7272C10.9349 16.7272 9.73252 16.2292 8.84599 15.3427C7.95945 14.4561 7.4614 13.2537 7.4614 12C7.4614 10.7462 7.95945 9.54383 8.84599 8.65729C9.73252 7.77076 10.9349 7.2727 12.1887 7.2727C13.2632 7.27143 14.3046 7.64429 15.1341 8.32725L17.4614 5.99998C16.49 5.14329 15.3251 4.53526 14.0669 4.22815C12.8086 3.92104 11.4946 3.92402 10.2377 4.23684C8.98087 4.54966 7.81877 5.16297 6.85126 6.02406C5.88376 6.88515 5.13979 7.96828 4.68329 9.18036C4.22679 10.3924 4.07141 11.6972 4.2305 12.9826C4.38959 14.268 4.85839 15.4956 5.59662 16.5598C6.33485 17.624 7.32043 18.4931 8.46867 19.0923C9.61691 19.6915 10.8935 20.003 12.1887 20C16.1887 20 19.825 17.0909 19.825 12C19.8183 11.5099 19.7574 11.0221 19.6432 10.5454Z" fill="white"/>
</mask>
<g mask="url(#mask0_411_3165)">
<path d="M3.46143 16.7273V7.27271L9.64324 12L3.46143 16.7273Z" fill="#FBBC05"/>
</g>
<mask id="mask1_411_3165" style="mask-type:luminance" maskUnits="userSpaceOnUse" x="4" y="4" width="16" height="16">
<path d="M19.6432 10.5454H12.1887V13.6363H16.4796C16.0796 15.6 14.4069 16.7272 12.1887 16.7272C10.9349 16.7272 9.73252 16.2292 8.84599 15.3427C7.95945 14.4561 7.4614 13.2537 7.4614 12C7.4614 10.7462 7.95945 9.54383 8.84599 8.65729C9.73252 7.77076 10.9349 7.2727 12.1887 7.2727C13.2632 7.27143 14.3046 7.64429 15.1341 8.32725L17.4614 5.99998C16.49 5.14329 15.3251 4.53526 14.0669 4.22815C12.8086 3.92104 11.4946 3.92402 10.2377 4.23684C8.98087 4.54966 7.81877 5.16297 6.85126 6.02406C5.88376 6.88515 5.13979 7.96828 4.68329 9.18036C4.22679 10.3924 4.07141 11.6972 4.2305 12.9826C4.38959 14.268 4.85839 15.4956 5.59662 16.5598C6.33485 17.624 7.32043 18.4931 8.46867 19.0923C9.61691 19.6915 10.8935 20.003 12.1887 20C16.1887 20 19.825 17.0909 19.825 12C19.8183 11.5099 19.7574 11.0221 19.6432 10.5454Z" fill="white"/>
</mask>
<g mask="url(#mask1_411_3165)">
<path d="M3.46143 7.2727L9.64324 12L12.1887 9.7818L20.916 8.36361V3.27271H3.46143V7.2727Z" fill="#EA4335"/>
</g>
<mask id="mask2_411_3165" style="mask-type:luminance" maskUnits="userSpaceOnUse" x="4" y="4" width="16" height="16">
<path d="M19.6432 10.5454H12.1887V13.6363H16.4796C16.0796 15.6 14.4069 16.7272 12.1887 16.7272C10.9349 16.7272 9.73252 16.2292 8.84599 15.3427C7.95945 14.4561 7.4614 13.2537 7.4614 12C7.4614 10.7462 7.95945 9.54383 8.84599 8.65729C9.73252 7.77076 10.9349 7.2727 12.1887 7.2727C13.2632 7.27143 14.3046 7.64429 15.1341 8.32725L17.4614 5.99998C16.49 5.14329 15.3251 4.53526 14.0669 4.22815C12.8086 3.92104 11.4946 3.92402 10.2377 4.23684C8.98087 4.54966 7.81877 5.16297 6.85126 6.02406C5.88376 6.88515 5.13979 7.96828 4.68329 9.18036C4.22679 10.3924 4.07141 11.6972 4.2305 12.9826C4.38959 14.268 4.85839 15.4956 5.59662 16.5598C6.33485 17.624 7.32043 18.4931 8.46867 19.0923C9.61691 19.6915 10.8935 20.003 12.1887 20C16.1887 20 19.825 17.0909 19.825 12C19.8183 11.5099 19.7574 11.0221 19.6432 10.5454Z" fill="white"/>
</mask>
<g mask="url(#mask2_411_3165)">
<path d="M3.46143 16.7272L14.3705 8.36361L17.2432 8.72725L20.916 3.27271V20.7272H3.46143V16.7272Z" fill="#34A853"/>
</g>
<mask id="mask3_411_3165" style="mask-type:luminance" maskUnits="userSpaceOnUse" x="4" y="4" width="16" height="16">
<path d="M19.6432 10.5454H12.1887V13.6363H16.4796C16.0796 15.6 14.4069 16.7272 12.1887 16.7272C10.9349 16.7272 9.73252 16.2292 8.84599 15.3427C7.95945 14.4561 7.4614 13.2537 7.4614 12C7.4614 10.7462 7.95945 9.54383 8.84599 8.65729C9.73252 7.77076 10.9349 7.2727 12.1887 7.2727C13.2632 7.27143 14.3046 7.64429 15.1341 8.32725L17.4614 5.99998C16.49 5.14329 15.3251 4.53526 14.0669 4.22815C12.8086 3.92104 11.4946 3.92402 10.2377 4.23684C8.98087 4.54966 7.81877 5.16297 6.85126 6.02406C5.88376 6.88515 5.13979 7.96828 4.68329 9.18036C4.22679 10.3924 4.07141 11.6972 4.2305 12.9826C4.38959 14.268 4.85839 15.4956 5.59662 16.5598C6.33485 17.624 7.32043 18.4931 8.46867 19.0923C9.61691 19.6915 10.8935 20.003 12.1887 20C16.1887 20 19.825 17.0909 19.825 12C19.8183 11.5099 19.7574 11.0221 19.6432 10.5454Z" fill="white"/>
</mask>
<g mask="url(#mask3_411_3165)">
<path d="M20.9157 20.7272L9.64302 12L8.18848 10.9091L20.9157 7.27271V20.7272Z" fill="#4285F4"/>
</g>
</svg>
