<svg width="90" height="24" viewBox="0 0 90 24" fill="none" xmlns="http://www.w3.org/2000/svg">
<path fill-rule="evenodd" clip-rule="evenodd" d="M23.5834 17.2895H28.3887C31.8482 17.2895 34.221 15.2045 34.221 12.0018C34.221 8.79912 31.8482 6.71412 28.3887 6.71412H23.5834V17.2895ZM26.0314 15.2797V8.72392H28.2668C30.3674 8.72392 31.7419 9.97907 31.7419 12.0018C31.7419 14.0246 30.3674 15.2797 28.2668 15.2797H26.0314ZM36.791 17.2895H39.239V6.71412H36.791V17.2895ZM42.4729 17.2895H47.2782C50.7377 17.2895 53.1105 15.2045 53.1105 12.0018C53.1105 8.79912 50.7377 6.71412 47.2782 6.71412H42.4729V17.2895ZM44.9209 15.2797V8.72392H47.1563C49.2569 8.72392 50.6314 9.97907 50.6314 12.0018C50.6314 14.0246 49.2569 15.2797 47.1563 15.2797H44.9209ZM58.1104 15.3238V12.8758H63.0195V10.9723H58.1104V8.67465H63.6704V6.71153H55.6779V17.287H63.8675V15.3238H58.1104ZM75.9081 17.287L73.5353 13.8872C74.9097 13.2985 75.711 12.1341 75.711 10.547C75.711 8.17414 73.9424 6.70894 71.1183 6.70894H66.5412V17.2844H68.9892V14.3384H71.2402L73.2785 17.2844H75.9081V17.287ZM73.2344 10.5496C73.2344 11.6984 72.4798 12.3934 70.9835 12.3934H68.9892V8.70836H70.9835C72.4798 8.70836 73.2344 9.3878 73.2344 10.5522V10.5496ZM83.4935 17.4685C86.8181 17.4685 89.2791 15.1579 89.2791 11.9992C89.2791 8.84062 86.8155 6.53 83.4935 6.53C80.1715 6.53 77.7079 8.85618 77.7079 11.9992C77.7079 15.1423 80.1559 17.4685 83.4935 17.4685ZM83.4935 15.3835C81.6056 15.3835 80.1844 14.009 80.1844 11.9992C80.1844 9.98944 81.6056 8.615 83.4935 8.615C85.3814 8.615 86.8025 9.98944 86.8025 11.9992C86.8025 14.009 85.3814 15.3835 83.4935 15.3835Z" fill="currentColor"/>
<path fill-rule="evenodd" clip-rule="evenodd" d="M9.01686 21L4.50972 13.1916L0 21H9.01686ZM10.3913 3C21.4257 3 21.5787 21 10.3913 21L0 3H10.3913Z" fill="currentColor"/>
</svg>
