<svg width="24" height="24" viewBox="0 0 24 24" fill="none" xmlns="http://www.w3.org/2000/svg">
<path d="M11.25 15.25V8C11.25 6.20507 9.79493 4.75 8 4.75C6.20507 4.75 4.75 6.20507 4.75 8V15.25C4.75 15.8023 5.19772 16.25 5.75 16.25H10.25C10.8023 16.25 11.25 15.8023 11.25 15.25Z" stroke="currentColor" stroke-width="1.5" stroke-linecap="round" stroke-linejoin="round"/>
<path d="M8.5 9C8.5 9.27614 8.27614 9.5 8 9.5C7.72386 9.5 7.5 9.27614 7.5 9C7.5 8.72386 7.72386 8.5 8 8.5C8.27614 8.5 8.5 8.72386 8.5 9Z" stroke="currentColor"/>
<path d="M8.75 4.75H15.25C17.4591 4.75 19.25 6.54086 19.25 8.75V15.25C19.25 15.8023 18.8023 16.25 18.25 16.25H8.75" stroke="currentColor" stroke-width="1.5" stroke-linecap="round" stroke-linejoin="round"/>
<path d="M14.75 9H16.25" stroke="currentColor" stroke-width="1.5" stroke-linecap="round" stroke-linejoin="round"/>
<path d="M15.25 16.5V19.25" stroke="currentColor" stroke-width="1.5" stroke-linecap="round" stroke-linejoin="round"/>
</svg>
