<svg width="24" height="24" viewBox="0 0 24 24" fill="none" xmlns="http://www.w3.org/2000/svg">
<path d="M19.8705 3.25012H9.12555C8.89282 3.25012 8.66962 3.34257 8.50506 3.50714C8.3405 3.6717 8.24805 3.89489 8.24805 4.12762V5.12512L14.3043 7.00012L20.748 5.12512V4.12762C20.748 3.89489 20.6556 3.6717 20.491 3.50714C20.3265 3.34257 20.1033 3.25012 19.8705 3.25012Z" fill="#0364B8"/>
<path d="M21.7812 12.878C21.8728 12.5903 21.9459 12.297 22 11.9999C21.9999 11.9269 21.9806 11.8552 21.9441 11.7921C21.9076 11.7289 21.8551 11.6764 21.7919 11.6399L21.7837 11.6349L21.7812 11.6337L15.0075 7.7749C14.9783 7.75594 14.948 7.73862 14.9169 7.72303C14.7873 7.65871 14.6446 7.62524 14.5 7.62524C14.3554 7.62524 14.2127 7.65871 14.0831 7.72303C14.052 7.73841 14.0217 7.75552 13.9925 7.77428L7.21875 11.6343L7.21625 11.6355L7.20875 11.6399C7.14543 11.6763 7.0928 11.7288 7.05616 11.7919C7.01952 11.8551 7.00015 11.9269 7 11.9999C7.05414 12.297 7.12721 12.5903 7.21875 12.878L14.4012 18.1312L21.7812 12.878Z" fill="#0A2767"/>
<path d="M16.9995 5.125H12.6245L11.3613 7L12.6245 8.875L16.9995 12.625H20.7495V8.875L16.9995 5.125Z" fill="#28A8EA"/>
<path d="M8.24805 5.125H12.623V8.875H8.24805V5.125Z" fill="#0078D4"/>
<path d="M17 5.125H20.75V8.875H17V5.125Z" fill="#50D9FF"/>
<path d="M16.998 12.625L12.623 8.875H8.24805V12.625L12.623 16.375L19.393 17.48L16.998 12.625Z" fill="#0364B8"/>
<path d="M12.625 8.875H17V12.625H12.625V8.875Z" fill="#0078D4"/>
<path d="M8.24805 12.625H12.623V16.375H8.24805V12.625Z" fill="#064A8C"/>
<path d="M17 12.625H20.75V16.375H17V12.625Z" fill="#0078D4"/>
<path opacity="0.5" d="M14.6206 17.7615L7.25 12.3865L7.55937 11.8427C7.55937 11.8427 14.275 15.6677 14.3775 15.7252C14.4194 15.742 14.4644 15.75 14.5095 15.7487C14.5547 15.7474 14.5991 15.7369 14.64 15.7177L21.4731 11.824L21.7831 12.3671L14.6206 17.7615Z" fill="#0A2767"/>
<path d="M21.7906 12.3606L21.7819 12.3656L21.78 12.3669L15.0063 16.2256C14.8717 16.3124 14.7172 16.3632 14.5574 16.3731C14.3977 16.3831 14.238 16.3519 14.0938 16.2825L16.4525 19.4456L21.6112 20.5688V20.5713C21.7312 20.4844 21.8289 20.3704 21.8963 20.2385C21.9637 20.1066 21.9988 19.9606 21.9988 19.8125V12C21.9988 12.0731 21.9796 12.1449 21.943 12.2082C21.9065 12.2715 21.8539 12.3241 21.7906 12.3606Z" fill="#1490DF"/>
<path opacity="0.05" d="M21.9988 19.8125V19.3513L15.7594 15.7963L15.0063 16.2256C14.8717 16.3124 14.7172 16.3632 14.5574 16.3731C14.3977 16.3831 14.238 16.3519 14.0938 16.2825L16.4525 19.4456L21.6112 20.5688V20.5713C21.7312 20.4845 21.8289 20.3704 21.8963 20.2385C21.9637 20.1066 21.9988 19.9606 21.9988 19.8125Z" fill="black"/>
<path opacity="0.1" d="M21.9675 20.0519L15.1281 16.1562L15.0063 16.225C14.8718 16.3118 14.7173 16.3627 14.5575 16.3728C14.3977 16.3829 14.2381 16.3518 14.0938 16.2825L16.4525 19.4456L21.6112 20.5687V20.5713C21.7862 20.4445 21.912 20.2613 21.9675 20.0525V20.0519Z" fill="black"/>
<path d="M7.21877 12.3688V12.3625H7.21252L7.19377 12.35C7.13402 12.3133 7.08478 12.2618 7.05082 12.2005C7.01687 12.1392 6.99937 12.0701 7.00002 12V19.8125C6.99985 19.9357 7.02399 20.0576 7.07105 20.1715C7.1181 20.2853 7.18715 20.3887 7.27424 20.4758C7.36133 20.5629 7.46474 20.6319 7.57856 20.679C7.69237 20.726 7.81436 20.7502 7.93752 20.75H21.0625C21.1406 20.7492 21.2183 20.7387 21.2938 20.7188C21.3329 20.7119 21.3708 20.6993 21.4063 20.6812C21.4195 20.68 21.4324 20.6757 21.4438 20.6688C21.4949 20.6478 21.5432 20.6205 21.5875 20.5875C21.6 20.5812 21.6063 20.5812 21.6125 20.5687L7.21877 12.3688Z" fill="#28A8EA"/>
<path opacity="0.1" d="M13.25 17.4169V7.20813C13.2493 6.98737 13.1614 6.77584 13.0053 6.61975C12.8492 6.46365 12.6376 6.37566 12.4169 6.375H8.26875V11.035L7.21875 11.6337L7.21563 11.635L7.20813 11.6394C7.14483 11.6759 7.09227 11.7285 7.05573 11.7918C7.0192 11.8551 6.99998 11.9269 7 12V18.25H12.4169C12.6376 18.2493 12.8492 18.1614 13.0053 18.0053C13.1614 17.8492 13.2493 17.6376 13.25 17.4169Z" fill="black"/>
<path opacity="0.2" d="M12.625 18.0419V7.83313C12.6243 7.61237 12.5364 7.40084 12.3803 7.24475C12.2242 7.08865 12.0126 7.00066 11.7919 7H8.26875V11.035L7.21875 11.6337L7.21563 11.635L7.20813 11.6394C7.14483 11.6759 7.09227 11.7285 7.05573 11.7918C7.0192 11.8551 6.99998 11.9269 7 12V18.875H11.7919C12.0126 18.8743 12.2242 18.7864 12.3803 18.6303C12.5364 18.4742 12.6243 18.2626 12.625 18.0419Z" fill="black"/>
<path opacity="0.2" d="M12.625 16.7919V7.83313C12.6243 7.61237 12.5364 7.40084 12.3803 7.24475C12.2242 7.08865 12.0126 7.00066 11.7919 7H8.26875V11.035L7.21875 11.6337L7.21563 11.635L7.20813 11.6394C7.14483 11.6759 7.09227 11.7285 7.05573 11.7918C7.0192 11.8551 6.99998 11.9269 7 12V17.625H11.7919C12.0126 17.6243 12.2242 17.5364 12.3803 17.3803C12.5364 17.2242 12.6243 17.0126 12.625 16.7919Z" fill="black"/>
<path opacity="0.2" d="M12 16.7919V7.83313C11.9993 7.61237 11.9114 7.40084 11.7553 7.24475C11.5992 7.08865 11.3876 7.00066 11.1669 7H8.26875V11.035L7.21875 11.6337L7.21563 11.635L7.20813 11.6394C7.14483 11.6759 7.09227 11.7285 7.05573 11.7918C7.0192 11.8551 6.99998 11.9269 7 12V17.625H11.1669C11.3876 17.6243 11.5992 17.5364 11.7553 17.3803C11.9114 17.2242 11.9993 17.0126 12 16.7919Z" fill="black"/>
<path d="M2.83312 7H11.1669C11.3878 7 11.5997 7.08778 11.756 7.24402C11.9122 7.40026 12 7.61217 12 7.83313V16.1669C12 16.3878 11.9122 16.5997 11.756 16.756C11.5997 16.9122 11.3878 17 11.1669 17H2.83312C2.61217 17 2.40026 16.9122 2.24402 16.756C2.08778 16.5997 2 16.3878 2 16.1669V7.83313C2 7.61217 2.08778 7.40026 2.24402 7.24402C2.40026 7.08778 2.61217 7 2.83312 7Z" fill="#0078D4"/>
<path d="M4.41712 10.4176C4.6385 9.94578 4.99589 9.55095 5.44337 9.28382C5.93913 9.00002 6.50361 8.85858 7.07462 8.87507C7.60334 8.8636 8.12504 8.99765 8.58275 9.26257C9.01359 9.5192 9.36057 9.8955 9.5815 10.3457C9.82217 10.8419 9.9421 11.388 9.9315 11.9394C9.94307 12.5154 9.81956 13.0861 9.57087 13.6057C9.34514 14.0719 8.9877 14.4617 8.54275 14.7269C8.06709 15.0003 7.52558 15.138 6.97712 15.1251C6.4368 15.1379 5.90329 15.0024 5.43462 14.7332C5.00034 14.4762 4.64926 14.0995 4.42337 13.6482C4.18105 13.1593 4.05953 12.6194 4.069 12.0738C4.05852 11.5025 4.17753 10.9363 4.41712 10.4176ZM5.51087 13.0788C5.6288 13.3771 5.82882 13.6358 6.08775 13.8251C6.35159 14.0097 6.66767 14.105 6.98962 14.0969C7.33259 14.1103 7.67061 14.0118 7.95275 13.8163C8.20879 13.6272 8.40371 13.3671 8.51337 13.0682C8.63632 12.7352 8.69692 12.3825 8.69212 12.0276C8.69593 11.6693 8.63887 11.313 8.52337 10.9738C8.42146 10.6687 8.23349 10.3996 7.98212 10.1988C7.70743 9.99352 7.37039 9.88912 7.02775 9.9032C6.69878 9.89488 6.37564 9.99093 6.10462 10.1776C5.84061 10.3672 5.63598 10.6279 5.51462 10.9294C5.24616 11.6207 5.2446 12.3871 5.51025 13.0794L5.51087 13.0788Z" fill="white"/>
</svg>
